# xmcd
# 
# Track frame offsets:
#     150
#     19828
#     41526
#     63918
#     86247
#     103108
#     123761
#     145425
# 
# Disc length: 2266
# 
# Revision: 1
# Processed by: cddbd v1.5.2PL0 Copyright (c) Steve Scherf et al.
# Submitted via: fre:ac v1.0.17
# 
DISCID=6a08d808
DTITLE=Golden Dawn - Return To Provenance
DYEAR=2011
DGENRE=Black Metal
TTITLE0=Nameless
TTITLE1=Return To Provenance
TTITLE2=Dark Illumination
TTITLE3=Dionysian Eucharist
TTITLE4=Denial
TTITLE5=Seduction
TTITLE6=Visions Of Entirety
TTITLE7=Self-Destruction
EXTD=
EXTT0=
EXTT1=
EXTT2=
EXTT3=
EXTT4=
EXTT5=
EXTT6=
EXTT7=
PLAYORDER=
